<?xml version="1.0" encoding="iso-8859-1"?>
<!-- Uploaded to: SVG Repo, www.svgrepo.com, Generator: SVG Repo Mixer Tools -->
<svg height="800px" width="800px" version="1.1" id="Layer_1" xmlns="http://www.w3.org/2000/svg" xmlns:xlink="http://www.w3.org/1999/xlink" 
	 viewBox="0 0 503.322 503.322" xml:space="preserve">
<path style="fill:#FBC176;" d="M338.441,0H43.39C24.298,0,8.678,15.62,8.678,34.712V468.61c0,19.092,15.62,34.712,34.712,34.712
	h295.051c19.092,0,34.712-15.62,34.712-34.712V34.712C373.153,15.62,357.532,0,338.441,0"/>
<polygon style="fill:#57B1E3;" points="373.153,164.881 442.576,164.881 442.576,95.458 373.153,95.458 "/>
<g>
	<path style="fill:#C39A6E;" d="M373.153,34.712v60.746h52.068V34.712C425.22,15.62,409.6,0,390.508,0h-52.068
		C357.532,0,373.153,15.62,373.153,34.712"/>
	<path style="fill:#C39A6E;" d="M373.153,164.881V468.61c0,19.092-15.62,34.712-34.712,34.712h52.068
		c19.092,0,34.712-15.62,34.712-34.712V164.881H373.153z"/>
</g>
<g>
	<path style="fill:#FBC176;" d="M425.22,34.712v17.356h52.068V34.712C477.288,15.62,461.668,0,442.576,0h-52.068
		C409.6,0,425.22,15.62,425.22,34.712"/>
	<path style="fill:#FBC176;" d="M442.576,121.492v43.39H425.22V468.61c0,19.092-15.62,34.712-34.712,34.712h52.068
		c19.092,0,34.712-15.62,34.712-34.712V121.492H442.576z"/>
</g>
<polygon style="fill:#26B999;" points="425.22,52.068 425.22,95.458 442.576,95.458 442.576,121.492 494.644,121.492 
	494.644,52.068 "/>
<path style="fill:#F38774;" d="M310.671,406.129l-41.654-41.654l-41.654,41.654c-3.471,3.471-10.414,0.868-10.414-4.339V0h104.136
	v401.79C321.085,406.997,314.142,410.468,310.671,406.129"/>
<g>
	<path style="fill:#FFFFFF;" d="M130.169,69.424H52.068c-5.207,0-8.678-3.471-8.678-8.678s3.471-8.678,8.678-8.678h78.102
		c5.207,0,8.678,3.471,8.678,8.678S135.376,69.424,130.169,69.424"/>
	<path style="fill:#FFFFFF;" d="M130.169,104.136H52.068c-5.207,0-8.678-3.471-8.678-8.678c0-5.207,3.471-8.678,8.678-8.678h78.102
		c5.207,0,8.678,3.471,8.678,8.678C138.847,100.664,135.376,104.136,130.169,104.136"/>
</g>
<g>
	<path style="fill:#C85B4C;" d="M286.373,130.169c5.207,0,8.678-3.471,8.678-8.678V0h-17.356v121.492
		C277.695,126.698,281.166,130.169,286.373,130.169"/>
	<path style="fill:#C85B4C;" d="M251.661,95.458c5.207,0,8.678-3.471,8.678-8.678V0h-17.356v86.78
		C242.983,91.986,246.454,95.458,251.661,95.458"/>
</g>
</svg>