<svg xmlns="http://www.w3.org/2000/svg"  viewBox="0 0 64 64" width="512px" height="512px" baseProfile="basic"><path fill="#37d0ee" d="M32.08,20.217h-2.597c-0.292-1.207-0.767-2.337-1.396-3.368l1.837-1.837	c0.751-0.751,0.751-1.965,0-2.716l-1.22-1.22c-0.751-0.751-1.965-0.751-2.716,0l-1.837,1.837c-1.031-0.629-2.161-1.105-3.368-1.396	V8.92c0-1.06-0.86-1.92-1.92-1.92h-1.725c-1.06,0-1.92,0.86-1.92,1.92v2.597c-1.207,0.292-2.337,0.767-3.368,1.396l-1.837-1.837	c-0.751-0.751-1.965-0.751-2.716,0l-1.22,1.22c-0.751,0.751-0.751,1.965,0,2.716l1.837,1.837c-0.629,1.031-1.105,2.161-1.396,3.368	H3.92c-1.06,0-1.92,0.86-1.92,1.92v1.725c0,1.06,0.86,1.92,1.92,1.92h2.597c0.292,1.207,0.767,2.337,1.396,3.368l-1.837,1.837	c-0.751,0.751-0.751,1.965,0,2.716l1.22,1.22c0.751,0.751,1.965,0.751,2.716,0l1.837-1.837c1.031,0.629,2.161,1.105,3.368,1.396	v2.597c0,1.06,0.86,1.92,1.92,1.92h1.725c1.06,0,1.92-0.86,1.92-1.92v-2.597c1.207-0.292,2.337-0.767,3.368-1.396l1.837,1.837	c0.751,0.751,1.965,0.751,2.716,0l1.22-1.22c0.751-0.751,0.751-1.965,0-2.716l-1.837-1.837c0.629-1.031,1.105-2.161,1.396-3.368	h2.597c1.06,0,1.92-0.86,1.92-1.92v-1.725C34,21.077,33.14,20.217,32.08,20.217z M17.955,28c-2.762,0-5-2.238-5-5s2.238-5,5-5	s5,2.238,5,5S20.717,28,17.955,28z"/><path fill="none" stroke="#fff" stroke-linecap="round" stroke-linejoin="round" stroke-miterlimit="10" stroke-width="3" d="M15.008,15.563c-2.346,0.933-4.15,2.945-4.795,5.42"/><path fill="#fff" d="M17.137,7c-1.06,0-1.92,0.86-1.92,1.92v2.597c-1.207,0.292-2.337,0.767-3.368,1.396	l-1.837-1.837c-0.751-0.751-1.965-0.751-2.716,0l-1.22,1.22c-0.751,0.751-0.751,1.965,0,2.716l1.837,1.837	c-0.629,1.031-1.105,2.161-1.396,3.368H3.92c-1.06,0-1.92,0.86-1.92,1.92v1.725c0,0.397,0.121,0.765,0.327,1.071	c0.503,0.17,1.032,0.283,1.593,0.283h2.598c2.312,0,4.321-1.584,4.861-3.832c0.163-0.676,0.433-1.326,0.803-1.933	c0.313-0.515,1.758-1.958,2.273-2.272c0.602-0.368,1.254-0.638,1.938-0.803c2.244-0.543,3.824-2.551,3.824-4.86V8.92	c0-0.56-0.113-1.09-0.283-1.593C19.628,7.121,19.26,7,18.863,7H17.137z" opacity=".3"/><path fill="#9c34c2" d="M59.08,37.217h-2.597c-0.292-1.207-0.767-2.337-1.396-3.368l1.837-1.837	c0.751-0.751,0.751-1.965,0-2.716l-1.22-1.22c-0.751-0.751-1.965-0.751-2.716,0l-1.837,1.837c-1.031-0.629-2.161-1.105-3.368-1.396	V25.92c0-1.06-0.86-1.92-1.92-1.92h-1.725c-1.06,0-1.92,0.86-1.92,1.92v2.597c-1.207,0.292-2.337,0.767-3.368,1.396l-1.837-1.837	c-0.751-0.751-1.965-0.751-2.716,0l-1.22,1.22c-0.751,0.751-0.751,1.965,0,2.716l1.837,1.837c-0.629,1.031-1.105,2.161-1.396,3.368	H30.92c-1.06,0-1.92,0.86-1.92,1.92v1.725c0,1.06,0.86,1.92,1.92,1.92h2.597c0.292,1.207,0.767,2.337,1.396,3.368l-1.837,1.837	c-0.751,0.751-0.751,1.965,0,2.716l1.22,1.22c0.751,0.751,1.965,0.751,2.716,0l1.837-1.837c1.031,0.629,2.161,1.105,3.368,1.396	v2.597c0,1.06,0.86,1.92,1.92,1.92h1.725c1.06,0,1.92-0.86,1.92-1.92v-2.597c1.207-0.292,2.337-0.767,3.368-1.396l1.837,1.837	c0.751,0.751,1.965,0.751,2.716,0l1.22-1.22c0.751-0.751,0.751-1.965,0-2.716l-1.837-1.837c0.629-1.031,1.105-2.161,1.396-3.368	h2.597c1.06,0,1.92-0.86,1.92-1.92v-1.725C61,38.077,60.14,37.217,59.08,37.217z M45,45c-2.762,0-5-2.238-5-5s2.238-5,5-5	c2.762,0,5,2.238,5,5C50,42.762,47.762,45,45,45z"/><ellipse cx="32" cy="61" opacity=".3" rx="19" ry="3"/><path d="M59.08,42.783c1.06,0,1.92-0.86,1.92-1.92v-1.725c0-1.06-0.86-1.92-1.92-1.92h-2.597	c-0.011-0.045-0.026-0.089-0.038-0.133c-0.103,0.228-0.193,0.463-0.261,0.708c-2.185,0.13-4.046,1.673-4.562,3.823	c-0.163,0.676-0.433,1.326-0.802,1.931c-0.314,0.515-1.759,1.959-2.274,2.274c-0.602,0.367-1.254,0.638-1.938,0.803	c-2.146,0.519-3.686,2.38-3.815,4.561c-0.244,0.068-0.479,0.158-0.707,0.261c0.045,0.011,0.088,0.027,0.133,0.038v2.597	c0,1.06,0.86,1.92,1.92,1.92h1.725c1.06,0,1.92-0.86,1.92-1.92v-2.597c1.207-0.292,2.337-0.767,3.368-1.396l1.837,1.837	c0.751,0.751,1.965,0.751,2.716,0l1.22-1.22c0.751-0.751,0.751-1.965,0-2.716l-1.837-1.837c0.629-1.031,1.105-2.161,1.396-3.368	H59.08z" opacity=".15"/></svg>