<?xml version="1.0" encoding="iso-8859-1"?>
<!-- Uploaded to: SVG Repo, www.svgrepo.com, Generator: SVG Repo Mixer Tools -->
<svg version="1.1" id="Layer_1" xmlns="http://www.w3.org/2000/svg" xmlns:xlink="http://www.w3.org/1999/xlink" 
	 viewBox="0 0 511.999 511.999" xml:space="preserve">
<path style="fill:#959CB5;" d="M388.876,139.946H123.123c-9.784,0-17.717,7.932-17.717,17.717v336.62
	c0,9.784,7.933,17.717,17.717,17.717h265.753c9.784,0,17.717-7.933,17.717-17.717v-336.62
	C406.593,147.877,398.66,139.946,388.876,139.946z"/>
<path style="fill:#00C3FF;" d="M362.301,210.813H149.699c-4.892,0-8.858,3.966-8.858,8.858v44.292c0,4.892,3.966,8.858,8.858,8.858
	h212.602c4.892,0,8.858-3.966,8.858-8.858v-44.292C371.159,214.779,367.193,210.813,362.301,210.813z"/>
<path style="fill:#464655;" d="M371.159,184.238H140.84c-4.896,0-8.858-3.962-8.858-8.858s3.962-8.858,8.858-8.858h230.319
	c4.896,0,8.858,3.962,8.858,8.858S376.054,184.238,371.159,184.238z"/>
<g>
	<path style="fill:#C7CFE2;" d="M193.991,343.689h-35.434c-4.892,0-8.858-3.966-8.858-8.858v-17.717
		c0-4.892,3.966-8.858,8.858-8.858h35.434c4.892,0,8.858,3.966,8.858,8.858v17.717C202.849,339.723,198.883,343.689,193.991,343.689
		z"/>
	<path style="fill:#C7CFE2;" d="M353.442,343.689h-35.434c-4.892,0-8.858-3.966-8.858-8.858v-17.717
		c0-4.892,3.966-8.858,8.858-8.858h35.434c4.892,0,8.858,3.966,8.858,8.858v17.717C362.301,339.723,358.334,343.689,353.442,343.689
		z"/>
	<path style="fill:#C7CFE2;" d="M273.716,343.689h-35.434c-4.892,0-8.858-3.966-8.858-8.858v-17.717
		c0-4.892,3.966-8.858,8.858-8.858h35.434c4.892,0,8.858,3.966,8.858,8.858v17.717C282.575,339.723,278.608,343.689,273.716,343.689
		z"/>
	<path style="fill:#C7CFE2;" d="M193.991,405.698h-35.434c-4.892,0-8.858-3.966-8.858-8.858v-17.717
		c0-4.892,3.966-8.858,8.858-8.858h35.434c4.892,0,8.858,3.966,8.858,8.858v17.717C202.849,401.732,198.883,405.698,193.991,405.698
		z"/>
	<path style="fill:#C7CFE2;" d="M353.442,405.698h-35.434c-4.892,0-8.858-3.966-8.858-8.858v-17.717
		c0-4.892,3.966-8.858,8.858-8.858h35.434c4.892,0,8.858,3.966,8.858,8.858v17.717C362.301,401.732,358.334,405.698,353.442,405.698
		z"/>
	<path style="fill:#C7CFE2;" d="M273.716,405.698h-35.434c-4.892,0-8.858-3.966-8.858-8.858v-17.717
		c0-4.892,3.966-8.858,8.858-8.858h35.434c4.892,0,8.858,3.966,8.858,8.858v17.717C282.575,401.732,278.608,405.698,273.716,405.698
		z"/>
</g>
<path style="fill:#707487;" d="M193.991,467.707h-35.434c-4.892,0-8.858-3.966-8.858-8.858v-17.717c0-4.892,3.966-8.858,8.858-8.858
	h35.434c4.892,0,8.858,3.966,8.858,8.858v17.717C202.849,463.741,198.883,467.707,193.991,467.707z"/>
<path style="fill:#9BF57D;" d="M353.442,467.707h-35.434c-4.892,0-8.858-3.966-8.858-8.858v-17.717c0-4.892,3.966-8.858,8.858-8.858
	h35.434c4.892,0,8.858,3.966,8.858,8.858v17.717C362.301,463.741,358.334,467.707,353.442,467.707z"/>
<path style="fill:#FFDC64;" d="M273.716,467.707h-35.434c-4.892,0-8.858-3.966-8.858-8.858v-17.717c0-4.892,3.966-8.858,8.858-8.858
	h35.434c4.892,0,8.858,3.966,8.858,8.858v17.717C282.575,463.741,278.608,467.707,273.716,467.707z"/>
<path style="fill:#F1F4FB;" d="M330.811,12.652L314.063,1.487c-2.975-1.983-6.852-1.983-9.827,0l-16.748,11.165
	c-2.975,1.983-6.852,1.983-9.827,0L260.913,1.487c-2.975-1.983-6.852-1.983-9.827,0l-16.748,11.165
	c-2.975,1.983-6.852,1.983-9.827,0L207.762,1.487c-2.975-1.983-6.852-1.983-9.827,0l-16.748,11.165
	c-2.975,1.983-6.852,1.983-9.827,0L164.982,8.4c-2.746-1.83-6.425,0.138-6.425,3.438v172.399h194.885V11.838
	c0-3.301-3.678-5.27-6.425-3.438l-6.378,4.252C337.663,14.635,333.786,14.635,330.811,12.652z"/>
<g>
	<path style="fill:#C7CFE2;" d="M282.575,69.078h-53.151c-4.896,0-8.858-3.962-8.858-8.858s3.962-8.858,8.858-8.858h53.151
		c4.896,0,8.858,3.962,8.858,8.858S287.47,69.078,282.575,69.078z"/>
	<path style="fill:#C7CFE2;" d="M318.009,104.512H193.991c-4.896,0-8.858-3.962-8.858-8.858c0-4.896,3.962-8.858,8.858-8.858
		h124.018c4.896,0,8.858,3.962,8.858,8.858C326.867,100.55,322.904,104.512,318.009,104.512z"/>
</g>
<g>
	<path style="fill:#AFB9D2;" d="M211.707,139.946h-17.717c-4.896,0-8.858-3.962-8.858-8.858c0-4.896,3.962-8.858,8.858-8.858h17.717
		c4.896,0,8.858,3.962,8.858,8.858C220.566,135.984,216.603,139.946,211.707,139.946z"/>
	<path style="fill:#AFB9D2;" d="M318.009,139.946h-17.717c-4.896,0-8.858-3.962-8.858-8.858c0-4.896,3.962-8.858,8.858-8.858h17.717
		c4.896,0,8.858,3.962,8.858,8.858C326.867,135.984,322.904,139.946,318.009,139.946z"/>
	<path style="fill:#AFB9D2;" d="M264.858,139.946h-17.717c-4.896,0-8.858-3.962-8.858-8.858c0-4.896,3.962-8.858,8.858-8.858h17.717
		c4.896,0,8.858,3.962,8.858,8.858C273.716,135.984,269.753,139.946,264.858,139.946z"/>
</g>
<rect x="158.554" y="166.515" style="fill:#D7DEED;" width="194.885" height="17.717"/>
<path style="fill:#00AAF0;" d="M362.301,210.813H149.699c-4.892,0-8.858,3.966-8.858,8.858v17.717c0-4.892,3.966-8.858,8.858-8.858
	h212.602c4.892,0,8.858,3.966,8.858,8.858v-17.717C371.159,214.779,367.193,210.813,362.301,210.813z"/>
</svg>