<?xml version="1.0" encoding="iso-8859-1"?>
<!-- Uploaded to: SVG Repo, www.svgrepo.com, Generator: SVG Repo Mixer Tools -->
<svg height="800px" width="800px" version="1.1" id="Layer_1" xmlns="http://www.w3.org/2000/svg" xmlns:xlink="http://www.w3.org/1999/xlink" 
	 viewBox="0 0 511.599 511.599" xml:space="preserve">
<path style="fill:#A0D468;" d="M468.585,255.893c0,117.627-95.362,212.975-212.974,212.975
	c-117.627,0-212.974-95.348-212.974-212.975S137.985,42.918,255.611,42.918C373.223,42.918,468.585,138.266,468.585,255.893z"/>
<path style="fill:#656D78;" d="M378.281,371.927l-0.952-0.297c-15.957-4.324-27.666-8.446-34.707-11.163
	c-24.965-9.602-31.477-16.534-33.131-19.797c-0.062-0.125-0.109-0.25-0.156-0.374l-0.234-30.523l-106.635,1.218l-0.203,29.306
	c-0.047,0.124-0.094,0.249-0.156,0.374c-1.671,3.263-8.165,10.195-33.13,19.812c-7.042,2.701-18.751,6.823-34.567,11.116
	l-1.093,0.328c-14.379,4.809-24.075,18.298-24.075,33.521v5.152c38.174,36.112,89.681,58.268,146.37,58.268
	c56.862,0,108.54-22.296,146.729-58.627v-4.793C402.341,390.225,392.677,376.737,378.281,371.927z"/>
<path style="fill:#DA4453;" d="M228.305,465.557c8.868,2.17,18.018,3.311,27.354,3.311c9.431,0,18.673-1.156,27.635-3.389
	l-9.728-76.331h-35.534L228.305,465.557z"/>
<polygon style="fill:#ED5564;" points="273.566,389.148 238.031,389.148 223.824,337.251 287.775,337.251 "/>
<path style="fill:#EAC6BB;" d="M338.843,253.988c0,53.973-51.443,105.854-83.044,105.854c-31.616,0-83.06-51.882-83.06-105.854
	c0-53.958,37.189-89.556,83.06-89.556S338.843,200.031,338.843,253.988z"/>
<path style="fill:#656D78;" d="M309.304,154.66c-14.129-12.787-61.468-28.493-108.696,0c-23.903,14.426-41.312,78.157-41.312,78.157
	s46.651,26.448,107.369-2.123c36.331-17.111,35.52-8.149,45.902,7.416c6.15,9.243,26.275,15.879,26.275,15.879
	S354.503,195.581,309.304,154.66z"/>
<g>
	<path style="fill:#434A54;" d="M74.612,266.556H10.647C4.761,266.556,0,261.779,0,255.893s4.762-10.663,10.647-10.663h63.966
		c5.886,0,10.648,4.777,10.648,10.663C85.261,261.779,80.498,266.556,74.612,266.556z"/>
	<path style="fill:#434A54;" d="M500.936,266.556h-63.95c-5.887,0-10.664-4.777-10.664-10.663s4.777-10.663,10.664-10.663h63.95
		c5.886,0,10.663,4.777,10.663,10.663C511.599,261.779,506.821,266.556,500.936,266.556z"/>
	<path style="fill:#434A54;" d="M255.799,85.369c-5.886,0-10.663-4.777-10.663-10.663v-63.95c0-5.886,4.777-10.663,10.663-10.663
		s10.647,4.777,10.647,10.663v63.95C266.446,80.592,261.685,85.369,255.799,85.369z"/>
	<path style="fill:#434A54;" d="M255.799,511.505c-5.886,0-10.663-4.777-10.663-10.663v-63.95c0-5.886,4.777-10.663,10.663-10.663
		s10.647,4.777,10.647,10.663v63.95C266.446,506.728,261.685,511.505,255.799,511.505z"/>
	<path style="fill:#434A54;" d="M413.737,97.768c-42.232-42.249-98.392-65.512-158.126-65.512S139.718,55.519,97.47,97.768
		c-42.233,42.232-65.496,98.391-65.496,158.126S55.237,371.786,97.47,414.02c42.248,42.249,98.407,65.512,158.142,65.512
		s115.894-23.263,158.126-65.512c42.232-42.232,65.496-98.392,65.496-158.126S455.97,139.999,413.737,97.768z M398.671,398.953
		c-38.22,38.221-89.023,59.251-143.06,59.251c-54.051,0-104.855-21.03-143.06-59.251c-38.221-38.22-59.267-89.023-59.267-143.06
		s21.046-104.855,59.267-143.061c38.204-38.22,89.009-59.25,143.06-59.25c54.036,0,104.84,21.03,143.06,59.25
		c38.205,38.221,59.251,89.024,59.251,143.061S436.876,360.733,398.671,398.953z"/>
</g>
</svg>