<?xml version="1.0" encoding="iso-8859-1"?>
<!-- Uploaded to: SVG Repo, www.svgrepo.com, Generator: SVG Repo Mixer Tools -->
<svg version="1.1" id="Layer_1" xmlns="http://www.w3.org/2000/svg" xmlns:xlink="http://www.w3.org/1999/xlink" 
	 viewBox="0 0 512 512" xml:space="preserve">
<rect x="18.732" y="68.683" style="fill:#D6E5F6;" width="237.268" height="374.634"/>
<path style="fill:#6398DE;" d="M493.268,49.951H256H18.732C8.387,49.951,0,58.338,0,68.683v374.634
	c0,10.344,8.387,18.732,18.732,18.732H256h237.268c10.345,0,18.732-8.388,18.732-18.732V68.683
	C512,58.338,503.613,49.951,493.268,49.951z M37.463,87.415H256v337.171H37.463V87.415z"/>
<g>
	<path style="fill:#8CB7E8;" d="M168.585,387.122H93.659c-10.345,0-18.732-8.388-18.732-18.732c0-10.346,8.387-18.732,18.732-18.732
		h74.927c10.345,0,18.732,8.386,18.732,18.732C187.317,378.734,178.93,387.122,168.585,387.122z"/>
	<path style="fill:#8CB7E8;" d="M206.049,312.195H93.659c-10.345,0-18.732-8.388-18.732-18.732c0-10.346,8.387-18.732,18.732-18.732
		h112.39c10.345,0,18.732,8.386,18.732,18.732C224.78,303.807,216.394,312.195,206.049,312.195z"/>
	<path style="fill:#8CB7E8;" d="M168.585,237.268H93.659c-10.345,0-18.732-8.388-18.732-18.732c0-10.346,8.387-18.732,18.732-18.732
		h74.927c10.345,0,18.732,8.386,18.732,18.732C187.317,228.88,178.93,237.268,168.585,237.268z"/>
	<path style="fill:#8CB7E8;" d="M206.049,162.341H93.659c-10.345,0-18.732-8.388-18.732-18.732c0-10.346,8.387-18.732,18.732-18.732
		h112.39c10.345,0,18.732,8.386,18.732,18.732C224.78,153.953,216.394,162.341,206.049,162.341z"/>
</g>
<path style="fill:#1D3366;" d="M512,137.694V68.683c0-10.345-8.387-18.732-18.732-18.732H256v168.585L512,137.694z"/>
<path style="fill:#294996;" d="M256,218.537v243.512h237.268c10.345,0,18.732-8.388,18.732-18.732V137.694L256,218.537z"/>
</svg>