<?xml version="1.0" encoding="iso-8859-1"?>
<!-- Uploaded to: SVG Repo, www.svgrepo.com, Generator: SVG Repo Mixer Tools -->
<svg height="800px" width="800px" version="1.1" id="Capa_1" xmlns="http://www.w3.org/2000/svg" xmlns:xlink="http://www.w3.org/1999/xlink" 
	 viewBox="0 0 512 512" xml:space="preserve">
<g>
	<g>
		<path style="fill:#5C546A;" d="M436,56H76c-15.464,0-28-12.536-28-28v0C48,12.536,60.536,0,76,0l360,0c15.464,0,28,12.536,28,28v0
			C464,43.464,451.464,56,436,56z"/>
	</g>
	<g>
		<path style="fill:#D7DBE0;" d="M424,32H88c-4.418,0-8,3.582-8,8v447.999c0,2.871,1.538,5.522,4.031,6.947l28,16
			c2.459,1.405,5.479,1.405,7.938,0L144,497.211l24.031,13.734c2.459,1.405,5.478,1.405,7.938,0L200,497.211l24.031,13.734
			c2.459,1.405,5.478,1.405,7.938,0L256,497.211l24.031,13.734c2.459,1.405,5.478,1.405,7.938,0L312,497.211l24.031,13.734
			c2.459,1.405,5.478,1.405,7.938,0L368,497.211l24.031,13.734c1.227,0.703,2.602,1.055,3.969,1.055s2.742-0.352,3.969-1.055l28-16
			c2.493-1.424,4.031-4.075,4.031-6.947V40C432,35.582,428.418,32,424,32z"/>
	</g>
	<g>
		<g>
			<path style="fill:#5C546A;" d="M376,88h-24c-4.422,0-8-3.582-8-8s3.578-8,8-8h24c4.422,0,8,3.582,8,8S380.422,88,376,88z"/>
		</g>
	</g>
	<g>
		<g>
			<path style="fill:#5C546A;" d="M376,128h-32c-4.422,0-8-3.582-8-8s3.578-8,8-8h32c4.422,0,8,3.582,8,8S380.422,128,376,128z"/>
		</g>
	</g>
	<g>
		<g>
			<path style="fill:#5C546A;" d="M376,168h-24c-4.422,0-8-3.582-8-8s3.578-8,8-8h24c4.422,0,8,3.582,8,8S380.422,168,376,168z"/>
		</g>
	</g>
	<g>
		<g>
			<path style="fill:#5C546A;" d="M376,208h-40c-4.422,0-8-3.578-8-8s3.578-8,8-8h40c4.422,0,8,3.578,8,8S380.422,208,376,208z"/>
		</g>
	</g>
	<g>
		<g>
			<path style="fill:#5C546A;" d="M376,248h-24c-4.422,0-8-3.578-8-8s3.578-8,8-8h24c4.422,0,8,3.578,8,8S380.422,248,376,248z"/>
		</g>
	</g>
	<g>
		<g>
			<path style="fill:#5C546A;" d="M376,288h-16c-4.422,0-8-3.578-8-8s3.578-8,8-8h16c4.422,0,8,3.578,8,8S380.422,288,376,288z"/>
		</g>
	</g>
	<g>
		<g>
			<path style="fill:#5C546A;" d="M376,328h-40c-4.422,0-8-3.578-8-8s3.578-8,8-8h40c4.422,0,8,3.578,8,8S380.422,328,376,328z"/>
		</g>
	</g>
	<g>
		<g>
			<path style="fill:#8A8895;" d="M264,88H136c-4.422,0-8-3.582-8-8s3.578-8,8-8h128c4.422,0,8,3.582,8,8S268.422,88,264,88z"/>
		</g>
	</g>
	<g>
		<g>
			<path style="fill:#8A8895;" d="M288,128H136c-4.422,0-8-3.582-8-8s3.578-8,8-8h152c4.422,0,8,3.582,8,8S292.422,128,288,128z"/>
		</g>
	</g>
	<g>
		<g>
			<path style="fill:#8A8895;" d="M240,168H136c-4.422,0-8-3.582-8-8s3.578-8,8-8h104c4.422,0,8,3.582,8,8S244.422,168,240,168z"/>
		</g>
	</g>
	<g>
		<g>
			<path style="fill:#8A8895;" d="M272,208H136c-4.422,0-8-3.578-8-8s3.578-8,8-8h136c4.422,0,8,3.578,8,8S276.422,208,272,208z"/>
		</g>
	</g>
	<g>
		<g>
			<path style="fill:#8A8895;" d="M312,248H136c-4.422,0-8-3.578-8-8s3.578-8,8-8h176c4.422,0,8,3.578,8,8S316.422,248,312,248z"/>
		</g>
	</g>
	<g>
		<g>
			<path style="fill:#8A8895;" d="M240,288H136c-4.422,0-8-3.578-8-8s3.578-8,8-8h104c4.422,0,8,3.578,8,8S244.422,288,240,288z"/>
		</g>
	</g>
	<g>
		<g>
			<path style="fill:#8A8895;" d="M272,328H136c-4.422,0-8-3.578-8-8s3.578-8,8-8h136c4.422,0,8,3.578,8,8S276.422,328,272,328z"/>
		</g>
	</g>
	<g>
		<g>
			<path style="fill:#5C546A;" d="M320,384H192c-4.422,0-8-3.578-8-8s3.578-8,8-8h128c4.422,0,8,3.578,8,8S324.422,384,320,384z"/>
		</g>
	</g>
	<g>
		<g>
			<path style="fill:#5C546A;" d="M360,424H152c-4.422,0-8-3.578-8-8s3.578-8,8-8h208c4.422,0,8,3.578,8,8S364.422,424,360,424z"/>
		</g>
	</g>
</g>
</svg>