<?xml version="1.0" encoding="iso-8859-1"?>
<!-- Uploaded to: SVG Repo, www.svgrepo.com, Generator: SVG Repo Mixer Tools -->
<svg height="200px" width="200px" version="1.1" id="Layer_1" xmlns="http://www.w3.org/2000/svg" xmlns:xlink="http://www.w3.org/1999/xlink" 
	 viewBox="0 0 480 480" xml:space="preserve">
<g transform="translate(0 -540.36)">
	<path style="fill:#D2D7D3;" d="M314.905,563.833c19.955,0,36.021,15.222,36.021,34.129v364.795c0,11.038-5.48,20.814-14.008,27.045
		V623.559H0v-25.597c0-18.908,16.065-34.129,36.021-34.129L314.905,563.833L314.905,563.833z"/>
	<path style="fill:#B4B8B5;" d="M36.021,563.833c-2.095,0-4.144,0.178-6.139,0.5c-1.005,0.269-1.807,0.472-2.051,0.496
		c18.179,1.767,36.705,16.926,36.705,34.633l-0.654-35.629H36.021z"/>
	<g>
		<path style="fill:#ECF0F1;" d="M379.443,563.833H100.558c-19.955,0-36.021,15.222-36.021,34.129v364.795
			c0,18.908,16.065,34.129,36.021,34.129h278.885c19.955,0,36.021-15.222,36.021-34.129V597.963
			C415.463,579.055,399.398,563.834,379.443,563.833L379.443,563.833z"/>
		<path style="fill:#ECF0F1;" d="M36.021,563.833c-1.267,0-2.521,0.064-3.754,0.184c18.179,1.767,32.27,16.239,32.27,33.945v353.42
			h272.381v38.42c8.528-6.231,14.008-16.007,14.008-27.045v-11.375h19.512V563.833h-305.9H36.021L36.021,563.833z"/>
	</g>
	<path style="fill:#DCDFE0;" d="M126.246,933.813v19.031v8.021c0,18.688-14.09,33.963-32.27,35.828
		c1.233,0.127,2.486,0.193,3.754,0.193h28.516h36.02h28.541H441.15c19.955,0,36.021-16.066,36.021-36.021V933.85L126.246,933.813
		L126.246,933.813z"/>
	<g>
		<path style="fill:#D2D7D3;" d="M129.074,933.813v19.031v8.021c0,18.688-14.09,33.963-32.27,35.828
			c1.233,0.127,2.486,0.193,3.754,0.193h28.516h36.02h28.541h250.344c19.955,0,36.021-16.066,36.021-36.021V933.85L129.074,933.813
			L129.074,933.813z"/>
		<path style="fill:#D2D7D3;" d="M270.832,645.213h-160v11.006h160V645.213z"/>
		<path style="fill:#D2D7D3;" d="M270.832,694.34h-160v11.006h160V694.34z"/>
		<path style="fill:#D2D7D3;" d="M270.832,743.467h-160v11.006h160V743.467z"/>
		<path style="fill:#D2D7D3;" d="M369.168,792.594H110.832V803.6h258.336V792.594z"/>
		<path style="fill:#D2D7D3;" d="M369.168,841.721H110.832v11.006h258.336V841.721z"/>
		<path style="fill:#D2D7D3;" d="M369.168,889.975h-50.029v11.006h50.029L369.168,889.975z"/>
	</g>
	<g shape-rendering="auto" image-rendering="auto" color-rendering="auto" color-interpolation="sRGB">
		<path style="fill:#D2D5D6;" d="M326.88,633.339v18.729c-13.313,5.474-21.199,19.81-18.768,34.295
			c2.566,15.285,16.101,26.611,31.492,25.985c3.814,0.476,7.005,3.423,7.75,7.862c0.859,5.115-2.125,9.731-6.572,10.992
			s-8.922-0.95-10.712-5.754l-20.311,7.567c3.08,8.269,9.448,14.567,17.12,17.785v18.946h21.675v-18.29
			c14.16-5.015,22.692-19.847,20.175-34.835c-2.566-15.282-16.097-26.607-31.485-25.985c-3.818-0.473-7.012-3.421-7.758-7.863
			c-0.859-5.115,2.125-9.731,6.572-10.992c4.447-1.262,8.922,0.952,10.712,5.755l20.311-7.567
			c-3.267-8.769-10.231-15.323-18.528-18.335v-18.295H326.88L326.88,633.339z"/>
		<path style="fill:#FFB61C;" d="M323.163,629.939v18.729c-13.313,5.474-21.199,19.81-18.768,34.295
			c2.566,15.285,16.101,26.611,31.492,25.985c3.814,0.476,7.005,3.423,7.75,7.862c0.859,5.115-2.125,9.731-6.572,10.992
			c-4.447,1.261-8.922-0.95-10.712-5.754l-20.311,7.567c3.08,8.269,9.448,14.567,17.12,17.785v18.946h21.675v-18.29
			c14.16-5.015,22.692-19.847,20.175-34.835c-2.566-15.282-16.097-26.607-31.485-25.985c-3.818-0.473-7.012-3.421-7.758-7.863
			c-0.859-5.115,2.125-9.731,6.572-10.992c4.447-1.262,8.922,0.952,10.712,5.755l20.311-7.567
			c-3.267-8.769-10.231-15.323-18.528-18.336v-18.295L323.163,629.939L323.163,629.939z"/>
	</g>
</g>
</svg>