<?xml version="1.0" encoding="iso-8859-1"?>
<!-- Uploaded to: SVG Repo, www.svgrepo.com, Generator: SVG Repo Mixer Tools -->
<svg height="800px" width="800px" version="1.1" id="Layer_1" xmlns="http://www.w3.org/2000/svg" xmlns:xlink="http://www.w3.org/1999/xlink" 
	 viewBox="0 0 511.6 511.6" xml:space="preserve">
<g>
	<path style="fill:#DA4453;" d="M342.76,383.513c0,0,43.277,128.087,4.215,128.087c-39.063,0-133.334-101.67-133.334-101.67
		L342.76,383.513z"/>
	<path style="fill:#DA4453;" d="M105.836,383.513c0,0-43.264,128.087-4.208,128.087c39.063,0,133.325-101.67,133.325-101.67
		L105.836,383.513z"/>
</g>
<path style="fill:#ED5564;" d="M426.288,266.401c0,111.819-90.647,202.468-202.467,202.468
	c-111.811,0-202.459-90.648-202.459-202.468c0-111.818,90.648-202.466,202.459-202.466
	C335.641,63.935,426.288,154.582,426.288,266.401z"/>
<path style="fill:#F5F7FA;" d="M362.214,266.401c0,76.425-61.951,138.393-138.393,138.393c-76.425,0-138.392-61.968-138.392-138.393
	c0-76.432,61.967-138.392,138.392-138.392C300.263,128.009,362.214,189.969,362.214,266.401z"/>
<path style="fill:#ED5564;" d="M298.419,266.401c0,41.203-33.403,74.583-74.599,74.583c-41.194,0-74.59-33.38-74.59-74.583
	c0-41.193,33.396-74.59,74.59-74.59C265.017,191.811,298.419,225.207,298.419,266.401z"/>
<polygon style="fill:#FFCE54;" points="414.892,135.628 375.703,126.588 363.212,114.098 354.595,75.347 429.943,0 490.238,60.281 
	"/>
<path style="fill:#434A54;" d="M478.28,22.608c0-5.887-4.778-10.656-10.647-10.656c-2.967,0-5.621,1.187-7.557,3.123l0,0
	L216.296,258.86c-1.936,1.929-3.13,4.599-3.13,7.541c0,5.887,4.777,10.664,10.655,10.664c2.943,0,5.613-1.202,7.541-3.123
	l243.764-243.77C477.061,28.236,478.28,25.566,478.28,22.608z"/>
</svg>